<?xml version="1.0" encoding="UTF-8"?>
<!-- Created with Inkscape (http://www.inkscape.org/) -->
<svg width="1024" height="291" version="1.1" viewBox="0 0 1024 291" xmlns="http://www.w3.org/2000/svg" xmlns:cc="http://creativecommons.org/ns#" xmlns:dc="http://purl.org/dc/elements/1.1/" xmlns:rdf="http://www.w3.org/1999/02/22-rdf-syntax-ns#">
 <metadata>
  <rdf:RDF>
   <cc:Work rdf:about="">
    <dc:format>image/svg+xml</dc:format>
    <dc:type rdf:resource="http://purl.org/dc/dcmitype/StillImage"/>
    <dc:title/>
   </cc:Work>
  </rdf:RDF>
 </metadata>
 <g>
  <rect x="32.685" y="32.365" width="958.63" height="226.27" ry="19" fill="#fff"/>
  <g fill="#232323" stroke-width="2.9888" aria-label="Doc">
   <path d="m97 196.81v-98.564h27.823q12.862 0 22.745 5.6864 9.8835 5.6864 15.231 16.179 5.4156 10.493 5.4833 24.099v6.2956q0 13.945-5.4156 24.438-5.3479 10.493-15.367 16.111-9.9512 5.6187-23.219 5.7541zm12.997-87.868v77.24h13.674q15.028 0 23.355-9.3419 8.3942-9.3419 8.3942-26.604v-5.7541q0-16.788-7.9203-26.063-7.8526-9.3419-22.339-9.4773z"/>
   <path d="m182.7 159.51q0-10.763 4.1971-19.361 4.2648-8.5972 11.779-13.268 7.5818-4.671 17.262-4.671 14.961 0 24.167 10.357 9.2742 10.357 9.2742 27.552v0.88003q0 10.696-4.1294 19.225-4.0617 8.4618-11.711 13.2-7.5818 4.7386-17.465 4.7386-14.893 0-24.167-10.357-9.2065-10.357-9.2065-27.416zm12.591 1.4893q0 12.185 5.6187 19.564 5.6864 7.3787 15.164 7.3787 9.545 0 15.164-7.4464 5.6187-7.5141 5.6187-20.985 0-12.05-5.7541-19.496-5.6864-7.5141-15.164-7.5141-9.2742 0-14.961 7.3787t-5.6864 21.121z"/>
   <path d="m294.47 187.94q6.7018 0 11.711-4.0617t5.551-10.154h11.847q-0.33847 6.2956-4.3325 11.982t-10.696 9.0711q-6.6341 3.3848-14.081 3.3848-14.961 0-23.829-9.9512-8.8003-10.019-8.8003-27.349v-2.0985q0-10.696 3.9263-19.022t11.237-12.93q7.3787-4.6032 17.398-4.6032 12.32 0 20.444 7.3787 8.1911 7.3787 8.7326 19.158h-11.847q-0.54156-7.108-5.4156-11.644-4.8063-4.6032-11.914-4.6032-9.545 0-14.825 6.9049-5.2125 6.8372-5.2125 19.835v2.3693q0 12.659 5.2125 19.496 5.2125 6.8372 14.893 6.8372z"/>
  </g>
  <g fill="#232323" stroke-width="2.9888" aria-label="Marker">
   <path d="m524.49 98.249 32.223 80.422 32.223-80.422h16.856v98.564h-12.997v-38.383l1.2185-41.429-32.358 79.812h-9.9511l-32.29-79.609 1.2862 41.226v38.383h-12.997v-98.564z"/>
   <path d="m671.99 196.81q-1.0831-2.1662-1.7601-7.7172-8.7326 9.0711-20.85 9.0711-10.831 0-17.804-6.0925-6.9049-6.1602-6.9049-15.57 0-11.44 8.6649-17.736 8.7326-6.3633 24.506-6.3633h12.185v-5.7541q0-6.5664-3.9263-10.425-3.9263-3.9263-11.576-3.9263-6.7018 0-11.237 3.3847-4.5356 3.3847-4.5356 8.1911h-12.591q0-5.4833 3.8586-10.56 3.9263-5.1448 10.56-8.1234 6.7018-2.9786 14.69-2.9786 12.659 0 19.835 6.3633 7.1756 6.2956 7.4464 17.398v33.712q0 10.087 2.5724 16.044v1.0831zm-20.782-9.545q5.8894 0 11.17-3.0463t7.6495-7.9203v-15.028h-9.8158q-23.016 0-23.016 13.471 0 5.8894 3.9263 9.2065t10.087 3.317z"/>
   <path d="m737.73 134.8q-2.8432-0.47387-6.1602-0.47387-12.32 0-16.721 10.493v51.99h-12.524v-73.246h12.185l0.20309 8.4619q6.1602-9.8158 17.465-9.8158 3.6555 0 5.551 0.94773z"/>
   <path d="m769.61 162.9-7.8526 8.1911v25.724h-12.524v-103.98h12.524v62.889l6.7018-8.0557 22.813-24.099h15.231l-28.5 30.598 31.817 42.648h-14.69z"/>
   <path d="m848.61 198.17q-14.893 0-24.235-9.7481-9.3419-9.8158-9.3419-26.198v-2.3016q0-10.899 4.1294-19.428 4.1971-8.5972 11.644-13.404 7.5141-4.874 16.247-4.874 14.284 0 22.204 9.4096 7.9203 9.4096 7.9203 26.943v5.2125h-49.62q0.27078 10.831 6.2956 17.533 6.0925 6.6341 15.434 6.6341 6.6341 0 11.237-2.7078 4.6032-2.7078 8.0557-7.1757l7.6495 5.9572q-9.2065 14.148-27.62 14.148zm-1.557-65.664q-7.5818 0-12.727 5.551-5.1448 5.4833-6.3633 15.434h36.691v-0.94773q-0.54155-9.545-5.1448-14.757-4.6032-5.2802-12.456-5.2802z"/>
   <path d="m927 134.8q-2.8432-0.47387-6.1602-0.47387-12.32 0-16.721 10.493v51.99h-12.524v-73.246h12.185l0.20308 8.4619q6.1602-9.8158 17.465-9.8158 3.6555 0 5.551 0.94773z"/>
  </g>
  <path d="m410.64 95.601c-21.15-0.0719-40.476 18.433-40.166 39.836-0.677 21.123 15.067 38.095 29.131 51.976 3.877 3.726 7.9272 7.2658 12.018 10.754 16.944-14.947 35.804-31.526 40.708-54.633 2.9885-17.27-5.8098-35.871-21.829-43.471-6.0941-3.1719-13.008-4.6307-19.861-4.462zm0.98304 11.918c17.374-0.8629 31.961 16.421 29.023 33.417-3.6504 17.035-16.948 29.739-29.007 41.405-12.008-12.097-26.016-24.981-29.175-42.506-1.9349-17.044 11.796-32.856 29.159-32.316zm-0.49378 18.455c-9.2981-0.10901-14.035 13.02-6.7564 18.844 6.5384 6.6428 19.103 0.61149 18.061-8.6362-0.17082-5.7621-5.5536-10.614-11.304-10.208z" fill="#f47b20" stroke-width=".10477"/>
 </g>
</svg>
